PathFileType	4	(X/Y/Z)	C:\Users\Basilio\Documents\Thesis Gigler\squatting_fais\c3dfiles\076\SLS_front_pre5\markers_experimental.trc
DataRate	CameraRate	NumFrames	NumMarkers	Units	OrigDataRate	OrigDataStartFrame	OrigNumFrames
200.000000	200.000000	4	61	mm	200.000000	1336	1782
Frame#	Time	FHD			LBHD			RBHD			C7			T10			CLAV			LSHO			LUUPA			LMUPA			LDUPA			LLEP			LMEP			LRAD			LUL			LRFIN			RSHO			RUPA1			RMUPA			RDUPA			RLEP			RMEP			RRAD			RUL			RUFIN			LASI			RASI			USACR			LSACR			RSACR			LTHI1			LTHI2			LTHI3			LTHI4			LLFC			LMFC			LTIB1			LTIB2			LTIB3			LTIB4			LLMAL			LMMAL			LHEE			LMT1			LMT2			LMT5			RTHI			RTHI2			RTHI3			RTHI4			RLFC			RMFC			RTIB1			RTIB2			RTIB3			RTIB4			RLMAL			RMMAL			RHEE			RMT1			RMT2			RMT5			
		X1	Y1	Z1	X2	Y2	Z2	X3	Y3	Z3	X4	Y4	Z4	X5	Y5	Z5	X6	Y6	Z6	X7	Y7	Z7	X8	Y8	Z8	X9	Y9	Z9	X10	Y10	Z10	X11	Y11	Z11	X12	Y12	Z12	X13	Y13	Z13	X14	Y14	Z14	X15	Y15	Z15	X16	Y16	Z16	X17	Y17	Z17	X18	Y18	Z18	X19	Y19	Z19	X20	Y20	Z20	X21	Y21	Z21	X22	Y22	Z22	X23	Y23	Z23	X24	Y24	Z24	X25	Y25	Z25	X26	Y26	Z26	X27	Y27	Z27	X28	Y28	Z28	X29	Y29	Z29	X30	Y30	Z30	X31	Y31	Z31	X32	Y32	Z32	X33	Y33	Z33	X34	Y34	Z34	X35	Y35	Z35	X36	Y36	Z36	X37	Y37	Z37	X38	Y38	Z38	X39	Y39	Z39	X40	Y40	Z40	X41	Y41	Z41	X42	Y42	Z42	X43	Y43	Z43	X44	Y44	Z44	X45	Y45	Z45	X46	Y46	Z46	X47	Y47	Z47	X48	Y48	Z48	X49	Y49	Z49	X50	Y50	Z50	X51	Y51	Z51	X52	Y52	Z52	X53	Y53	Z53	X54	Y54	Z54	X55	Y55	Z55	X56	Y56	Z56	X57	Y57	Z57	X58	Y58	Z58	X59	Y59	Z59	X60	Y60	Z60	X61	Y61	Z61	

1337	6.68	-266.7080383300782	1634.267456054688	-1013.537902832031	-395.1592102050782	1550.6015625	-1113.506713867188	-383.3467102050782	1551.494995117188	-961.6524658203127	-428.7240295410157	1426.15478515625	-1040.608642578125	-445.9181518554689	1111.013793945313	-1054.653198242188	-292.0107116699219	1356.911499023438	-1040.016723632813	-354.6597595214844	1370.430419921875	-1223.649780273438	-376.5845947265626	1166.668579101563	-1285.963623046875	-346.4827880859376	1136.828979492188	-1259.922973632813	-382.5658264160157	1098.54443359375	-1292.0087890625	-403.6648864746095	1045.770751953125	-1292.700927734375	-440.3165283203126	1038.558227539063	-1219.820556640625	-343.2707824707032	806.6275634765627	-1255.5791015625	-378.1544799804688	805.996032714844	-1311.56982421875	-335.4440307617188	718.3757324218751	-1268.449951171875	-362.0242919921876	1358.546875	-866.7285766601565	-412.2861633300782	1161.92724609375	-799.5220336914065	-370.6346130371094	1135.383056640625	-798.3847656250002	-412.8367614746095	1091.607666015625	-796.6931762695315	-405.6749877929689	1029.646240234375	-795.195251464844	-410.7066955566407	1017.848388671875	-875.7832641601565	-343.6944580078126	791.6846313476565	-803.6520996093752	-393.7098388671876	799.355163574219	-759.6898803710939	-337.8142089843751	715.9013061523439	-775.900573730469	-277.8273315429688	933.1831665039065	-1143.470092773438	-290.5890808105469	961.0212402343752	-930.2338867187502	-451.727752685547	1000.482055664063	-1046.437622070313	-456.623016357422	968.994323730469	-1072.148193359375	-463.520965576172	972.4856567382815	-1015.970825195313	-331.4246826171876	763.8743286132814	-1197.681518554688	-291.1033935546876	691.3741455078126	-1188.956909179688	-242.5999450683594	700.7410278320314	-1180.52734375	-309.8333740234376	635.6906738281251	-1171.021850585938	-279.7359924316407	481.3760986328126	-1135.392578125	-256.4376525878907	491.0786437988282	-1020.113586425781	-268.8255920410157	342.1152648925782	-1046.144287109375	-294.1547241210938	283.1603698730469	-1107.086791992188	-268.3081054687501	287.7246398925782	-1066.977294921875	-302.2630310058594	221.6168060302735	-1027.28271484375	-378.6597290039063	106.4219284057617	-1071.341430664063	-355.9026489257813	120.9649429321289	-989.9102172851565	-440.988739013672	96.24245452880862	-1024.290771484375	-239.2129974365235	51.3263397216797	-1003.770141601563	-233.5046081542969	49.25459289550783	-1042.647583007813	-257.7246704101563	44.05025482177735	-1093.055908203125	-206.5838470458985	769.8148193359377	-856.8020019531252	-140.3878784179688	770.8370361328127	-866.9798583984377	-125.9095764160157	799.0379028320315	-880.6881103515627	-92.14204406738283	704.3010864257814	-881.9856567382815	-46.49889373779298	666.7070922851564	-889.3908691406252	-35.22662734985352	677.1277465820314	-1005.762145996094	85.39475250244142	616.7494506835939	-911.7944946289065	108.7446517944336	513.8378906250001	-883.2415161132815	137.4420776367188	548.4053344726564	-896.6416625976565	180.7833557128907	531.1152954101564	-931.0161743164065	262.0644531250001	396.7950744628907	-897.6924438476565	256.7180786132813	422.2409667968751	-976.3184204101565	253.8456115722657	333.6802368164063	-937.7152099609377	378.4768066406251	494.4842529296876	-973.7337036132815	375.3136901855469	508.2925415039064	-926.8349609375002	378.2876281738282	476.8872070312501	-873.3577270507815	
1338	6.685	-266.9554138183594	1635.015258789063	-1013.604614257813	-395.2816467285157	1550.921997070313	-1113.583618164063	-383.4528808593751	1552.000854492188	-961.7348632812502	-428.8804321289064	1426.642578125	-1040.633666992188	-445.7718811035157	1111.555419921875	-1054.780883789063	-292.0890808105469	1357.541015625	-1040.061645507813	-354.8662719726563	1371.100830078125	-1223.797485351563	-376.2678222656251	1167.207885742188	-1285.96142578125	-346.1362915039063	1137.411376953125	-1259.859497070313	-382.0295104980469	1099.025268554688	-1291.959350585938	-403.1287231445314	1046.235473632813	-1292.700317382813	-439.7452087402345	1038.9736328125	-1219.772827148438	-342.2412719726563	807.0742187500002	-1255.6611328125	-377.6397094726563	806.4760742187502	-1311.62060546875	-334.4180908203126	718.9800415039064	-1268.69677734375	-362.1936645507813	1359.127197265625	-866.750183105469	-412.6413574218751	1162.619018554688	-799.717468261719	-371.0075073242188	1136.014282226563	-798.4404296875002	-413.540985107422	1092.205200195313	-796.6866455078127	-405.990447998047	1030.301147460938	-795.2207641601565	-410.6752929687501	1018.483947753906	-875.8205566406252	-342.9517822265626	792.5166015625002	-803.748718261719	-393.0617675781251	799.885437011719	-759.8656005859376	-336.6896667480469	716.7769165039064	-776.0607910156252	-277.6962585449219	933.6503906250002	-1143.64697265625	-290.4428710937501	962.8455200195315	-930.3096923828127	-451.5867004394532	1001.117126464844	-1046.567260742188	-456.6092529296876	969.4837036132815	-1072.164306640625	-463.593475341797	972.8789062500002	-1016.018432617188	-331.6848754882813	764.4655151367189	-1197.68798828125	-291.5811767578126	691.8884887695314	-1188.843383789063	-242.9675750732422	700.9611816406251	-1180.505249023438	-310.5929260253907	636.1934814453126	-1170.987426757813	-280.8039855957032	481.744110107422	-1135.25390625	-257.3085937500001	491.3726806640626	-1019.953308105469	-269.0379638671876	342.8049621582032	-1045.87255859375	-294.8060913085938	283.4421081542969	-1107.059448242188	-268.8871154785157	288.1966247558594	-1067.018310546875	-302.5337829589844	221.8227996826172	-1027.236450195313	-378.5928039550782	106.4640274047852	-1071.296630859375	-355.9521484375001	120.9897384643555	-989.9156494140627	-440.9668273925782	96.211784362793	-1024.2734375	-239.1963348388672	51.40512466430665	-1003.767456054688	-233.3287963867188	49.17232131958009	-1042.610717773438	-257.7637939453126	44.06753158569337	-1093.054321289063	-206.4104461669922	770.471862792969	-856.864929199219	-140.2128295898438	771.6213989257815	-867.1514892578127	-125.5980758666992	799.8643188476565	-880.7452392578127	-91.88335418701173	705.0718994140626	-882.0694580078127	-46.2618637084961	667.4434204101564	-889.4553222656252	-34.96294403076173	677.6644897460939	-1005.826965332031	85.49089813232423	617.3551635742189	-911.8436279296877	108.8828353881836	514.3930664062501	-883.2440185546877	137.5600128173828	548.9511718750001	-896.7112426757815	180.8816680908203	531.6542358398439	-931.1026611328127	262.0468444824219	397.3096923828126	-897.6397705078127	256.8669128417969	422.743133544922	-976.330749511719	253.8619995117188	334.1982421875001	-937.599548339844	378.5681152343751	494.8982543945314	-973.8044433593752	375.4049072265626	508.7218322753907	-926.868591308594	378.0968322753907	477.0942687988282	-873.002380371094	
1339	6.69	-267.2632141113282	1635.739013671875	-1013.625305175781	-395.5113220214845	1551.72412109375	-1113.671997070313	-383.6776123046876	1552.587646484375	-961.8320922851565	-428.9927673339845	1427.256713867188	-1040.726318359375	-445.7479553222657	1112.071655273438	-1054.95166015625	-291.9007568359376	1358.05810546875	-1040.062377929688	-354.8384094238282	1371.740600585938	-1223.8291015625	-375.7543334960938	1167.69140625	-1285.88134765625	-345.5640563964844	1138.064697265625	-1259.750366210938	-381.5643005371094	1099.7265625	-1291.952392578125	-402.5223083496095	1046.78955078125	-1292.601440429688	-439.0968627929689	1039.393310546875	-1219.725219726563	-341.2847290039063	807.7666015625002	-1255.875610351563	-376.5857543945313	807.0889892578127	-1311.756225585938	-333.1774902343751	719.5819091796876	-1269.137451171875	-362.4078369140626	1359.636840820313	-866.821472167969	-412.9238586425782	1163.31640625	-799.9356079101565	-371.2715148925782	1136.749267578125	-798.479919433594	-413.6205139160157	1092.941040039063	-796.9277343750002	-406.2669372558595	1030.906127929688	-795.2846679687502	-410.9813537597657	1018.880310058594	-875.8317871093752	-342.1931457519532	793.328796386719	-803.8398437500002	-392.3241577148439	800.502624511719	-760.0798950195314	-335.3775634765626	717.8258666992189	-776.0864868164065	-277.5850219726563	934.1237792968752	-1143.767700195313	-290.0701293945313	963.5171508789065	-930.4158325195315	-451.4383850097657	1001.709594726563	-1046.7373046875	-456.3147888183595	970.0509033203127	-1072.162963867188	-463.3747558593751	973.585876464844	-1016.103698730469	-331.7782287597657	764.9530029296876	-1197.571166992188	-292.0100708007813	692.4256591796876	-1188.944091796875	-243.2841796875001	701.1002197265626	-1180.518798828125	-311.0463867187501	636.4987792968751	-1170.804443359375	-281.6794433593751	482.1589660644532	-1135.217041015625	-258.1469726562501	491.6236877441407	-1019.884033203125	-269.7576904296876	343.1124877929688	-1045.852783203125	-294.7923889160157	283.6285095214844	-1106.687866210938	-269.4660949707032	288.3995056152344	-1067.168212890625	-302.6090698242188	221.8570404052735	-1027.087890625	-378.6611328125001	106.5067214965821	-1071.357788085938	-355.9607543945313	121.004997253418	-989.8745117187502	-440.9944763183595	96.23710632324222	-1024.2421875	-239.2362365722657	51.33847427368165	-1003.763244628906	-233.3272552490235	49.20431900024415	-1042.606811523438	-257.7989196777344	44.08222198486329	-1093.040283203125	-206.1518707275391	771.1427001953127	-857.0087890625002	-140.024642944336	772.2969970703127	-867.2506103515627	-125.2793731689453	800.6707763671877	-880.9262695312502	-91.74420166015626	705.5917968750001	-882.0134277343752	-46.0720558166504	668.0568847656251	-889.4690551757815	-34.87594223022462	678.1268920898439	-1005.735900878906	85.55887603759767	617.8933105468751	-911.7767333984377	108.8966293334961	514.8931884765626	-883.272155761719	137.6778717041016	549.5451660156251	-896.752136230469	180.9969787597657	532.1849365234376	-931.1413574218752	262.1223144531251	397.8803100585939	-897.6464843750002	256.9330444335938	423.2553710937501	-976.435729980469	253.7981872558594	334.6202697753907	-937.5467529296877	378.7007446289063	495.3648986816407	-973.9188232421877	375.4528198242188	508.9993591308595	-926.8940429687502	378.1492004394532	477.5948181152345	-873.0371093750002	
1340	6.695	-267.3709411621094	1636.290161132813	-1013.673217773438	-395.6667480468751	1552.083251953125	-1113.855346679688	-383.9739685058594	1553.238159179688	-961.9168701171877	-429.1050720214845	1427.829345703125	-1040.784912109375	-445.7601013183595	1112.549438476563	-1055.155151367188	-291.9104003906251	1358.541259765625	-1040.064697265625	-354.9352416992188	1372.342407226563	-1223.749267578125	-375.1944580078126	1168.188354492188	-1285.695068359375	-345.1708068847657	1138.615600585938	-1259.704467773438	-380.9828186035157	1100.05908203125	-1291.8076171875	-401.7874450683595	1047.319702148438	-1292.590576171875	-438.4759216308595	1039.78857421875	-1219.628051757813	-340.2411804199219	808.3494873046877	-1256.051513671875	-375.3908081054688	807.8741455078127	-1312.052490234375	-331.9015502929688	720.2309570312501	-1269.383056640625	-362.5085449218751	1360.258056640625	-866.894470214844	-413.1434936523439	1164.014404296875	-800.1225585937502	-371.4700622558594	1137.521484375	-798.4101562500002	-414.2097778320314	1093.484985351563	-796.951354980469	-406.4758300781251	1031.462280273438	-795.3256835937502	-411.1216430664064	1019.383483886719	-875.8510742187502	-341.1241760253907	794.2155761718752	-803.720397949219	-391.2750244140626	801.183044433594	-760.4049682617189	-333.9824218750001	718.8091430664064	-775.9121093750002	-277.5950012207032	934.5917968750002	-1143.90380859375	-289.9164733886719	964.1909179687502	-930.6518554687502	-451.3152465820314	1002.272521972656	-1046.837036132813	-456.0936279296876	970.5027465820315	-1072.299682617188	-463.2810668945314	974.2236938476565	-1016.154541015625	-332.3505859375001	765.3955078125001	-1197.572631835938	-292.2347106933594	692.7147216796876	-1188.905639648438	-243.8052062988282	701.3939208984376	-1180.526123046875	-311.5992736816407	637.0120239257814	-1170.825927734375	-282.3640441894532	482.464813232422	-1135.13330078125	-258.9167785644532	491.9158630371095	-1019.818115234375	-270.1176147460938	343.3299255371094	-1045.578369140625	-295.9043884277344	284.0272521972657	-1106.970458984375	-270.0312500000001	288.7130737304688	-1067.268310546875	-303.1269226074219	222.2131805419922	-1027.157470703125	-378.6624145507813	106.481185913086	-1071.292236328125	-355.9984741210938	121.0167999267578	-989.865905761719	-440.9977111816407	96.24661254882815	-1024.236083984375	-239.1874389648438	51.39136886596681	-1003.777893066406	-233.4592742919922	49.28770065307619	-1042.642700195313	-257.7498474121094	44.10369491577149	-1093.026611328125	-205.9071960449219	771.983581542969	-857.0000610351565	-139.8621520996094	772.9453125000002	-867.4036254882815	-125.1459655761719	801.3377075195315	-881.030700683594	-91.66966247558595	706.1589965820314	-882.1059570312502	-45.87058258056641	668.7774658203126	-889.4594726562502	-34.91195297241212	678.6478881835939	-1005.717407226563	85.72035217285158	618.3902587890626	-911.860046386719	108.9593200683594	515.4420166015626	-883.307067871094	137.793441772461	550.1225585937501	-896.7592773437502	181.0982208251953	532.6818847656251	-931.1491699218752	262.1408081054688	398.4963684082032	-897.635437011719	256.9447631835938	424.0359802246095	-978.4638671875002	253.8046569824219	335.1953430175782	-937.5023193359377	379.1592712402344	495.7579345703126	-974.3448486328127	375.7196044921876	509.4274902343751	-927.2024536132815	378.3486328125001	478.4932556152345	-873.2171630859377	
